<?xml version="1.0" encoding="UTF-8"?>
<!-- Created with Inkscape (http://www.inkscape.org/) -->
<svg width="1472.2" height="1213.1" version="1.1" viewBox="0 0 1472.2 1213.1" xml:space="preserve" xmlns="http://www.w3.org/2000/svg"><defs><clipPath id="clipPath188"><path d="m1268.5 1796.4s-45.09-158.58-14.86-211.49c30.23-52.9 303.8-28.71 448.9-28.71s182.88 24.18 128.47 77.08-251.06 63.23-356.02 163.12z"/></clipPath><linearGradient id="linearGradient194" x2="1" gradientTransform="matrix(611.52 0 0 -611.52 1243.2 1673.5)" gradientUnits="userSpaceOnUse"><stop stop-color="#462b91" offset="0"/><stop stop-color="#5a369b" offset="1"/></linearGradient><clipPath id="clipPath224"><path d="m1453.1 1836.4s-13.51 102.26-133.61 118.27c-32.85 4.38-162.08-142.36-129.23-214.64 32.86-72.29 214.65-173.04 271.6-212.46 56.94-39.43 179.6-129.22 216.84-89.8 37.22 39.43 0 120.46-56.96 177.41-56.94 56.95-168.64 221.22-168.64 221.22z"/></clipPath><linearGradient id="linearGradient230" x2="1" gradientTransform="matrix(508.69 0 0 -508.69 1185 1691.4)" gradientUnits="userSpaceOnUse"><stop stop-color="#4c43a3" offset="0"/><stop stop-color="#525bb2" offset="1"/></linearGradient><clipPath id="clipPath240"><path d="m1716.5 4900.5c6.89-63.2-84.3 19.01-112.52-170.37-28.22-189.39-158.63-238.85-266.55-229.86-107.93 9-137.16 159.64-137.16 258.58 0 98.93-22.49 255.29 125.91 254.11s360.18 164.1 390.32-112.46z"/></clipPath><linearGradient id="linearGradient246" x2="1" gradientTransform="matrix(517.82 0 0 -517.82 1199.1 4780.1)" gradientUnits="userSpaceOnUse"><stop stop-color="#141e36" offset="0"/><stop stop-color="#374162" offset="1"/></linearGradient></defs><g transform="matrix(1.3333 0 0 -1.3333 0 1213.1)"><g transform="scale(.1)"><g><path d="m7058 0c-421.04 0-795.69 58.391-744.41 191.53 53.48 138.81 272.77 217.68 565.45 258.68-627.76-7.402-1212.2-21.781-1654.1-54.711-598.28-44.59-1332-68.668-2025.2-68.668-522.29 0-1021.6 13.668-1422.6 42.547-149.19-21.707-314.7-24.559-432.4-32.207-42.25-2.75-86.9-4.492-132.04-4.492-230.7 0-473.31 45.562-462.88 235.62 10.898 198.5 344.63 234.02 625.21 256.87 690.92 164.53 1977.1 216.37 3318.7 216.37 1605.7 0 3290.6-74.329 4126.6-118.74 1780.2-94.551 2359.8-48.332 2194.2-300.68-92.2-140.47-1341-154.93-2727.8-162.32 238.84-16.629 446.37-37.301 583.26-52.699 573.88-64.59 760.73-33.02 707.35-205.39-53.39-172.38-1310.2-66.961-1866.4-154.8-192.87-30.461-429.42-46.91-652.9-46.91" fill="#e1dfde"/><path d="m10354 5033.6c-68.3 0-123.7 55.36-123.7 123.66 0 68.29 55.4 123.65 123.7 123.65s123.6-55.36 123.6-123.65c0-68.3-55.3-123.66-123.6-123.66zm-371.83-4371.5h743.63v4852h-743.63v-4852" fill="#c6c1e6"/><path d="m9982.5 5514.1h149.83v-4852h-149.83v4852" fill="#908ecf"/></g><g fill="#4b4ca9"><path d="m10261 4729.8c0 16.35-13.2 29.62-29.6 29.62h-248.93v-59.25h248.93c16.4 0 29.6 13.27 29.6 29.63"/><path d="m10261 3717.5c0 16.36-13.2 29.62-29.6 29.62h-248.93v-59.25h248.93c16.4 0 29.6 13.27 29.6 29.63"/><path d="m10168 4476.7c0 16.36-13.2 29.62-29.6 29.62h-155.63v-59.24h155.63c16.4 0 29.6 13.26 29.6 29.62"/><path d="m10168 4223.6c0 16.36-13.2 29.62-29.6 29.62h-155.63v-59.24h155.63c16.4 0 29.6 13.27 29.6 29.62"/><path d="m10168 3970.6c0 16.35-13.2 29.62-29.6 29.62h-155.63v-59.25h155.63c16.4 0 29.6 13.27 29.6 29.63"/><path d="m10261 2705.2c0 16.35-13.2 29.62-29.6 29.62h-248.93v-59.24h248.93c16.4 0 29.6 13.26 29.6 29.62"/><path d="m10168 3464.4c0 16.35-13.2 29.61-29.6 29.61h-155.63v-59.24h155.63c16.4 0 29.6 13.27 29.6 29.63"/><path d="m10168 3211.3c0 16.36-13.2 29.62-29.6 29.62h-155.63v-59.25h155.63c16.4 0 29.6 13.27 29.6 29.63"/><path d="m10168 2958.3c0 16.36-13.2 29.62-29.6 29.62h-155.63v-59.24h155.63c16.4 0 29.6 13.27 29.6 29.62"/><path d="m10261 1675.6v34.55c0 6.81-5.5 12.34-12.3 12.34h-266.23v-59.24h266.23c6.8 0 12.3 5.53 12.3 12.35"/><path d="m10168 2452.1c0 16.36-13.2 29.62-29.6 29.62h-155.63v-59.24h155.63c16.4 0 29.6 13.26 29.6 29.62"/><path d="m10168 2199c0 16.36-13.2 29.62-29.6 29.62h-155.63v-59.23h155.63c16.4 0 29.6 13.26 29.6 29.61"/><path d="m10168 1946c0 16.36-13.2 29.62-29.6 29.62h-155.63v-59.24h155.63c16.4 0 29.6 13.26 29.6 29.62"/><path d="m10168 1439.8c0 16.35-13.2 29.61-29.6 29.61h-155.63v-59.23h155.63c16.4 0 29.6 13.26 29.6 29.62"/><path d="m10168 1186.7c0 16.36-13.2 29.62-29.6 29.62h-155.63v-59.24h155.63c16.4 0 29.6 13.26 29.6 29.62"/><path d="m10168 933.65c0 16.364-13.2 29.622-29.6 29.622h-155.63v-59.239h155.63c16.4 0 29.6 13.27 29.6 29.617"/><path d="m9674.8 2615.5h-7747.6v4425.3c0 69.71 56.53 126.23 126.23 126.23h7495.2c69.72 0 126.23-56.52 126.23-126.23v-4425.3"/></g><g><path d="m2298.4 2986.8v3809h7005.1v-3809h-7005.1" fill="#fff"/><path d="m9674.8 2615.5h-7747.6v-797.76c0-69.72 56.53-126.23 126.23-126.23h7495.2c69.72 0 126.23 56.51 126.23 126.23v797.76" fill="#908ecf"/><path d="m7066.3 917.18h-2530.7c-70.42 0-127.52-57.09-127.52-127.51 0-70.43 57.1-127.52 127.52-127.52h2530.7c70.43 0 127.52 57.09 127.52 127.52 0 70.418-57.09 127.51-127.52 127.51" fill="#908ecf"/><path d="m6574.6 1691.5h-1547.2l-136-774.31h1819.2l-136.01 774.31" fill="#6567ba"/><path d="m6006.6 2137.7c0-113.57-92.07-205.64-205.64-205.64-113.56 0-205.63 92.07-205.63 205.64s92.07 205.63 205.63 205.63c113.57 0 205.64-92.06 205.64-205.63" fill="#6567ba"/><path d="m3176.8 2986.8v5367.8h5248.3v-5367.8h-5248.3" fill="#e8eef9"/><path d="m3176.8 8354.5v303.07c0 39.93 32.37 72.3 72.3 72.3h5103.7c39.92 0 72.29-32.37 72.29-72.3v-303.07h-5248.3" fill="#f03c83"/><path d="m3473.9 8354.5v-5367.8h4654.2v5367.8h-4654.2" fill="#fff"/><path d="m3473.9 8354.5v-2330.2h4654.2v2330.2h-4654.2" fill="#fff"/><path d="m3473.9 6024.3v-1756.8h4654.2v1756.8h-4654.2" fill="#f1f1fa"/><path d="m3698 8545.9c0-61.89-50.16-112.06-112.06-112.06-61.88 0-112.05 50.17-112.05 112.06s50.17 112.06 112.05 112.06c61.9 0 112.06-50.17 112.06-112.06" fill="#f68ac1"/><path d="m5443.1 8489.9h-1540.8c-30.95 0-56.03 25.09-56.03 56.03 0 30.95 25.08 56.03 56.03 56.03h1540.8c30.95 0 56.04-25.08 56.04-56.03 0-30.94-25.09-56.03-56.04-56.03" fill="#f68ac1"/></g><g fill="#c6c1e6"><path d="m4679.5 4699.3h-803.88c-30.95 0-56.02 25.09-56.02 56.03s25.07 56.03 56.02 56.03h803.88c30.94 0 56.02-25.09 56.02-56.03s-25.08-56.03-56.02-56.03"/><path d="m4679.5 4466.7h-803.88c-30.95 0-56.02 25.09-56.02 56.04 0 30.93 25.07 56.02 56.02 56.02h803.88c30.94 0 56.02-25.09 56.02-56.02 0-30.95-25.08-56.04-56.02-56.04"/><path d="m7480.8 7481.3h-1137.7c-30.95 0-56.03 25.08-56.03 56.03 0 30.94 25.08 56.03 56.03 56.03h1137.7c30.95 0 56.04-25.09 56.04-56.03 0-30.95-25.09-56.03-56.04-56.03"/><path d="m7147 7251.6h-803.87c-30.95 0-56.03 25.09-56.03 56.03 0 30.95 25.08 56.03 56.03 56.03h803.87c30.94 0 56.03-25.08 56.03-56.03 0-30.94-25.09-56.03-56.03-56.03"/><path d="m7268.6 7021.9h-925.47c-30.95 0-56.03 25.08-56.03 56.02 0 30.95 25.08 56.03 56.03 56.03h925.47c30.95 0 56.02-25.08 56.02-56.03 0-30.94-25.07-56.02-56.02-56.02"/></g><g><path d="m7222.9 6648.4h-834.1c-56.17 0-101.71 45.54-101.71 101.71s45.54 101.71 101.71 101.71h834.1c56.18 0 101.71-45.54 101.71-101.71s-45.53-101.71-101.71-101.71" fill="#f68ac1"/><path d="m7329 3180.3h-834.11c-56.18 0-101.71 45.54-101.71 101.71s45.53 101.71 101.71 101.71h834.11c56.17 0 101.71-45.54 101.71-101.71s-45.54-101.71-101.71-101.71" fill="#f68ac1"/><path d="m6141.5 3180.3h-1867.1c-56.17 0-101.71 45.54-101.71 101.71s45.54 101.71 101.71 101.71h1867.1c56.17 0 101.71-45.54 101.71-101.71s-45.54-101.71-101.71-101.71" fill="#ebe8e7"/></g><g fill="#c6c1e6"><path d="m6202.9 4699.3h-803.87c-30.95 0-56.03 25.09-56.03 56.03s25.08 56.03 56.03 56.03h803.87c30.94 0 56.03-25.09 56.03-56.03s-25.09-56.03-56.03-56.03"/><path d="m6202.9 4466.7h-803.87c-30.95 0-56.03 25.09-56.03 56.04 0 30.93 25.08 56.02 56.03 56.02h803.87c30.94 0 56.03-25.09 56.03-56.02 0-30.95-25.09-56.04-56.03-56.04"/><path d="m6381.9 3839.7h-1161.8c-30.93 0-56.02 25.08-56.02 56.02 0 30.95 25.09 56.03 56.02 56.03h1161.8c30.94 0 56.03-25.08 56.03-56.03 0-30.94-25.09-56.02-56.03-56.02"/><path d="m6202.9 3607.1h-803.87c-30.95 0-56.03 25.08-56.03 56.03 0 30.94 25.08 56.02 56.03 56.02h803.87c30.94 0 56.03-25.08 56.03-56.02 0-30.95-25.09-56.03-56.03-56.03"/><path d="m7726.6 4699.3h-803.88c-30.95 0-56.03 25.09-56.03 56.03s25.08 56.03 56.03 56.03h803.88c30.93 0 56.02-25.09 56.02-56.03s-25.09-56.03-56.02-56.03"/><path d="m7726.6 4466.7h-803.88c-30.95 0-56.03 25.09-56.03 56.04 0 30.93 25.08 56.02 56.03 56.02h803.88c30.93 0 56.02-25.09 56.02-56.02 0-30.95-25.09-56.04-56.02-56.04"/></g><g><path d="m8072.1 8489.9h-335.72c-30.94 0-56.02 25.09-56.02 56.03 0 30.95 25.08 56.03 56.02 56.03h335.72c30.94 0 56.02-25.08 56.02-56.03 0-30.94-25.08-56.03-56.02-56.03" fill="#f68ac1"/><path d="m4836.8 4981.3h-1118.6c-11.2 0-20.29 9.09-20.29 20.29v733.61c0 11.2 9.09 20.28 20.29 20.28h1118.6c11.2 0 20.28-9.08 20.28-20.28v-733.61c0-11.2-9.08-20.29-20.28-20.29" fill="#f68ac1"/><path d="m6360.2 4981.3h-1118.6c-11.2 0-20.28 9.09-20.28 20.29v733.61c0 11.2 9.08 20.28 20.28 20.28h1118.6c11.2 0 20.28-9.08 20.28-20.28v-733.61c0-11.2-9.08-20.29-20.28-20.29" fill="#c6c1e6"/><path d="m7883.9 4981.3h-1118.6c-11.2 0-20.29 9.09-20.29 20.29v733.61c0 11.2 9.09 20.28 20.29 20.28h1118.6c11.21 0 20.29-9.08 20.29-20.28v-733.61c0-11.2-9.08-20.29-20.29-20.29" fill="#f68ac1"/></g><g fill="#cfaada"><path d="m5358.7 6200c0-24.63-19.96-44.6-44.59-44.6s-44.59 19.97-44.59 44.6 19.96 44.59 44.59 44.59 44.59-19.96 44.59-44.59"/><path d="m5602.1 6200c0-24.63-19.97-44.6-44.6-44.6-24.61 0-44.59 19.97-44.59 44.6s19.98 44.59 44.59 44.59c24.63 0 44.6-19.96 44.6-44.59"/><path d="m5845.6 6200c0-24.63-19.97-44.6-44.6-44.6s-44.59 19.97-44.59 44.6 19.96 44.59 44.59 44.59 44.6-19.96 44.6-44.59"/><path d="m6089 6200c0-24.63-19.96-44.6-44.59-44.6s-44.6 19.97-44.6 44.6 19.97 44.59 44.6 44.59 44.59-19.96 44.59-44.59"/><path d="m6332.4 6200c0-24.63-19.97-44.6-44.6-44.6s-44.59 19.97-44.59 44.6 19.96 44.59 44.59 44.59 44.6-19.96 44.6-44.59"/></g><g><path d="m3473.9 6024.3h3902.2c-36.41 74.89-83.38 142.93-146.47 198.66-148.4 131.1-355.2 166.53-548.79 208.14-233.51 50.19-463.49 116.78-687.69 199.09-114.46 42.02-233.08 92.34-306.89 189.39-69.37 91.2-88.66 210.17-99.59 324.24-18.84 196.68-19.45 395.21-49.35 590.51-29.91 195.31-91.94 391.27-218.12 543.31-22.86 27.54-47.83 53.16-74.48 76.84h-1770.8v-2330.2" fill="#fef1f9"/><path d="m5314.1 7065.7c0-343.84-278.74-622.57-622.58-622.57s-622.57 278.73-622.57 622.57 278.73 622.57 622.57 622.57 622.58-278.73 622.58-622.57" fill="#908ecf"/><path d="m5756.4 7539.4c0-218.9-177.45-396.35-396.35-396.35-218.89 0-396.34 177.45-396.34 396.35 0 218.89 177.45 396.34 396.34 396.34 218.9 0 396.35-177.45 396.35-396.34" fill="#f03c83"/><path d="m9032.7 1956.6c-97.42 0-176.68 77.28-176.68 172.27v1715.9c0 94.99 79.26 172.26 176.68 172.26h1832.1c97.4 0 176.7-77.27 176.7-172.26v-1715.9c0-94.98-79.3-172.26-176.7-172.26h-1832.1" fill="#fff"/><path d="m9075.6 3866.5c-36.57 0-66.22-27.78-66.22-62.03v-1635.4c0-34.24 29.65-62.02 66.22-62.02h1746.2c36.5 0 66.2 27.78 66.2 62.02v1635.4c0 34.26-29.7 62.04-66.2 62.04h-1746.2" fill="#f365a4"/><path d="m9009.4 2509.7v-340.65c0-34.26 29.65-62.03 66.22-62.03h1222.8l-768.64 1246.9-520.43-844.23" fill="#fbcae3"/><path d="m10874 2130.4-505.9 820.8-520.48-844.23h974.68c20.9 0 39.6 9.17 51.7 23.43" fill="#f68ac1"/><path d="m10663 3465.5c0-97.14-78.8-175.89-175.9-175.89-97.2 0-175.9 78.75-175.9 175.89s78.7 175.89 175.9 175.89c97.1 0 175.9-78.75 175.9-175.89" fill="#fef7fa"/><path d="m10431 7916.5c0 409.02-331.6 740.61-740.59 740.61-409.03 0-740.62-331.59-740.62-740.61 0-128.94 36.47-256.23 101.6-367.27 32.96-56.17 73.18-106.26 117.77-153.52 42.56-45.13 99.53-74.44 139.99-121.07 34.93-40.27 39.12-88.88 55.99-137.06 20.67-58.99 76.34-98.49 138.84-98.49h373.38c62.24 0 117.74 39.17 138.64 97.8 14.3 40.36 24.2 91.82 46.5 128.02 27.9 45.09 90.2 68.22 128.5 104.77 49.1 46.89 92.6 97.59 128.3 155.57 71.9 116.94 111.7 253.83 111.7 391.25" fill="#f68ac1"/><path d="m9913.4 8378.8c-7.66 0-15.46 1.52-22.94 4.74-16.96 7.29-34.49 13.71-52.11 19.08-30.7 9.36-48 41.85-38.65 72.56 9.37 30.71 41.89 48 72.56 38.65 21.69-6.61 43.26-14.51 64.14-23.49 29.48-12.68 43.12-46.87 30.43-76.37-9.46-22.01-30.91-35.17-53.43-35.17" fill="#fff"/><path d="m10257 7858.3c-32.1 0-58.1 26.03-58.1 58.13 0 140.78-56.5 271.79-159.1 368.9-23.3 22.07-24.3 58.86-2.2 82.18 22 23.32 58.8 24.33 82.1 2.26 124.2-117.57 195.5-282.8 195.5-453.34 0-32.1-26.1-58.13-58.2-58.13" fill="#fff"/><path d="m9997.2 7834.9c-17.07 2.93-33.32-8.5-36.28-25.58l-3.02-17.48-60.72-40.27c-24.61-16.32-57.22-15.66-81.16 1.65l-45.88 33.17c-46.45 33.6-109.12 33.93-155.94 0.84l-49.2-34.78c-23.92-16.91-56.36-17.35-80.72-1.08l-55.12 36.8-3.87 23.08c-2.86 17.09-19.06 28.63-36.14 25.76-17.09-2.87-28.64-19.05-25.77-36.14l132.82-792.29c2.57-15.34 15.86-26.2 30.91-26.2 1.73 0 3.48 0.14 5.24 0.43 17.09 2.87 28.63 19.06 25.76 36.15l-114.7 684.22 6.02-4.02c22.38-14.95 48.4-22.4 74.39-22.4 27.22 0 54.42 8.16 77.41 24.43l49.21 34.78c24.89 17.59 58.21 17.42 82.91-0.45l45.88-33.18c45.01-32.54 106.36-33.78 152.65-3.09l11.32 7.51-118.87-687.64c-2.95-17.08 8.5-33.32 25.58-36.28 1.81-0.31 3.61-0.46 5.39-0.46 14.99 0 28.24 10.78 30.89 26.05l136.59 790.2c3 17.08-8.5 33.32-25.58 36.27" fill="#908ecf"/><path d="m9900.7 7039h-420.5c-31.44 0-56.93-25.48-56.93-56.93v-203.61c0-31.44 25.49-56.93 56.93-56.93h51.31c19.01-70.05 82.87-121.63 158.94-121.63s139.93 51.58 158.94 121.63h51.31c31.44 0 56.93 25.49 56.93 56.93v203.61c0 31.45-25.49 56.93-56.93 56.93" fill="#908ecf"/></g><g fill="#f68ac1"><path d="m9693.5 8805.4c-18.72 0-33.9 15.18-33.9 33.9v225.11c0 18.72 15.18 33.89 33.9 33.89 18.71 0 33.89-15.17 33.89-33.89v-225.11c0-18.72-15.18-33.9-33.89-33.9"/><path d="m10186 8655c-8.5-1.78-17.6-0.32-25.5 4.81-15.6 10.24-20 31.24-9.8 46.91l123.2 188.41c10.2 15.67 31.2 20.07 46.9 9.82 15.7-10.24 20.1-31.25 9.8-46.91l-123.2-188.41c-5.1-7.84-12.9-12.86-21.4-14.63"/><path d="m10665 8412.7-197.9-107.43c-16.4-8.92-37-2.83-45.9 13.62-9 16.45-2.9 37.03 13.6 45.96l197.8 107.42c16.5 8.93 37 2.83 46-13.62 8.9-16.45 2.8-37.02-13.6-45.95"/><path d="m9212.3 8655c8.5-1.78 17.67-0.32 25.5 4.81 15.66 10.24 20.06 31.24 9.81 46.91l-123.18 188.41c-10.25 15.67-31.25 20.07-46.92 9.82-15.66-10.24-20.05-31.25-9.82-46.91l123.18-188.41c5.13-7.84 12.94-12.86 21.43-14.63"/><path d="m8734.2 8412.7 197.82-107.43c16.44-8.92 37.02-2.83 45.95 13.62 8.94 16.45 2.85 37.03-13.6 45.96l-197.83 107.42c-16.45 8.93-37.02 2.83-45.96-13.62-8.92-16.45-2.83-37.02 13.62-45.95"/></g><g><path d="m3377.7 4758.9 573.95 525.84c19.6 17.97 3.28 50.36-22.83 45.29l-764.13-148.44 213.01-422.69" fill="#fef7fa"/><path d="m3163.7 5181.2 213-422.7-2830.8-1426.5-213 422.7 2830.8 1426.5" fill="#f03c83"/><path d="m3318.9 4873.1 57.78-114.66-2830.8-1426.5-57.769 114.66 2830.8 1426.5" fill="#f68ac1"/><path d="m3163.7 5181.2 57.77-114.65-2830.8-1426.5-57.778 114.65 2830.8 1426.5" fill="#f68ac1"/><path d="m25.367 3334.7c58.824-116.72 201.12-163.66 317.85-104.84l202.69 102.13-213 422.7-202.69-102.14c-116.72-58.82-163.67-201.12-104.85-317.85" fill="#908ecf"/><path d="m549.8 3864 213.01-422.7-216.91-109.31-213 422.7 216.9 109.31" fill="#6567ba"/><path d="m3928.8 5330-272.16-52.87c28.98-55.92 63.11-122.23 91.59-178.77l203.4 186.35c19.6 17.97 3.28 50.36-22.83 45.29" fill="#f03c83"/></g><g fill="#4b4ca9"><path d="m1456.7 568.3c64.72 0 115.98 54.679 111.8 119.27l-37.7 582.55h-148.19l-37.7-582.55c-4.18-64.59 47.08-119.27 111.79-119.27"/><path d="m1942.2 516.2c76.77 0 127.13 80.281 93.71 149.4l-286.31 592.26h-148.19l242.88-672.91c14.9-41.25 54.05-68.75 97.91-68.75"/><path d="m936.74 516.2c-76.777 0-127.13 80.281-93.715 149.4l286.32 592.26h148.18l-242.88-672.91c-14.89-41.25-54.048-68.75-97.908-68.75"/></g><path d="m897.52 1519.3v-188.48c0-67.75 251.82-122.68 562.46-122.68s562.47 54.93 562.47 122.68v188.48h-1124.9" fill="#4f50ab"/><path d="m897.52 1519.3c0-67.76 251.82-122.69 562.46-122.69s562.47 54.93 562.47 122.69-251.83 122.69-562.47 122.69-562.46-54.93-562.46-122.69" fill="#6b6abc"/><g clip-path="url(#clipPath188)"><path d="m1268.5 1796.4s-45.09-158.58-14.86-211.49c30.23-52.9 303.8-28.71 448.9-28.71s182.88 24.18 128.47 77.08-251.06 63.23-356.02 163.12h-206.49" fill="url(#linearGradient194)"/></g><g><path d="m1024.2 3290s0-161.75 86.04-378.55c86.03-216.81 103.24-382 103.24-382s3.44-289.08 17.2-464.59c13.77-175.51 37.86-268.43 37.86-268.43h206.49s106.68 585.04 110.12 881-180.28 712.38-180.28 712.38l-380.67-99.81" fill="#f03c83"/><path d="m1254.8 3338.2s-44.75-192.72 65.38-320.05 234.02-450.82 234.02-450.82-115.68-55.07-154.2-247.79-83.26-344.14-83.26-344.14 127.33-20.65 158.31-89.48c0 0 330.38 426.74 388.87 660.75 58.51 234.03-75.7 743.35-75.7 743.35l-533.42 48.18" fill="#f35da6"/><path d="m902.32 3870.7s-59.039-149.33-31.257-187.53c27.785-38.2 179.69-107.66 179.69-107.66v277.83l-148.43 17.36" fill="#f797cb"/><path d="m1230.4 4352.5s-205.8-30.6-310.76-335.96c-38.204-111.14-48.625-159.75-48.625-159.75s97.242-48.17 201.43-55.34c104.18-7.18 157.95 551.05 157.95 551.05" fill="#4b4ca9"/></g><g fill="#f797cb"><path d="m1474.6 5011.8c216.93 17.71 246.67-167.1 241.37-334.2-5.3-167.11-33.92-254.64-120.41-257.29-86.47-2.65-372.94 122.02-364.98 334.2 7.96 212.2 114.05 246.68 244.02 257.29"/><path d="m1553.5 4469.5s-24.54-111.34-11.33-156.65c13.22-45.29-124.56-49.07-207.61-20.75-83.04 28.3-51.57 29.35-26.42 139.66 25.15 110.32 18.87 152.88 18.87 152.88l226.49-115.14"/><path d="m2033.3 4010.3 175.65-92.44 124.79 302.76 120.18-57.78s32.62-409.83-201.06-459.91c-64.71-13.87-376.71 143.29-376.71 143.29l157.15 164.08"/></g><g><path d="m1571.8 4345.6c278.65-113.76 521.76-329.08 521.76-329.08s-8.09-142.51-107.67-250.05l-375.06 149.33-39.03 429.8" fill="#4b4ca9"/><path d="m1417.2 4388.9c-342.3 19.82-361.37-302.66-405.56-722.5-26.877-255.28-40.311-403.09-26.877-421 13.437-17.92 174.67 44.79 380.7 35.83 206.02-8.96 407.56-76.14 452.35-67.18 44.78 8.95-44.79 640.45-53.75 761.38s-62.23 396.98-346.86 413.47" fill="#4b4ca9"/><path d="m2333.8 4220.6s-34.39 46.45-35.66 82.04c-1.27 35.58-19.06 91.5-36.86 101.67-17.79 10.16 26.69 52.1 68.63 0 41.94-52.11 26.69-83.15 59.73-79.06 33.04 4.08 161.83 69.49 211.39 98.72s106.76 22.34 68.62-71.44c-38.12-93.77-172.93-178.29-215.67-189.71l-120.18 57.78" fill="#f797cb"/></g><g clip-path="url(#clipPath224)"><path d="m1453.1 1836.4s-13.51 102.26-133.61 118.27c-32.85 4.38-162.08-142.36-129.23-214.64 32.86-72.29 214.65-173.04 271.6-212.46 56.94-39.43 179.6-129.22 216.84-89.8 37.22 39.43 0 120.46-56.96 177.41-56.94 56.95-168.64 221.22-168.64 221.22" fill="url(#linearGradient230)"/></g><g clip-path="url(#clipPath240)"><path d="m1716.5 4900.5c6.89-63.2-84.3 19.01-112.52-170.37-28.22-189.39-158.63-238.85-266.55-229.86-107.93 9-137.16 159.64-137.16 258.58 0 98.93-22.49 255.29 125.91 254.11s360.18 164.1 390.32-112.46" fill="url(#linearGradient246)"/></g><path d="m1571.8 4847.3s-136.18-277.35-406.72-214.4c-270.53 62.96 1.53 240.11 1.53 240.11l405.19-25.71" fill="#908ecf"/><path d="m1733.2 4914s-116.92-92.18-344.01-80.94-222.6 39.99-222.6 39.99-38.22 306.27 267.57 306.27 299.04-265.32 299.04-265.32" fill="#908ecf"/><g fill="#f797cb"><path d="m1628.8 4730.1s-52.69 84.9-79.03 20.49c-26.35-64.41 14.08-141.05 70.88-144.59l8.15 124.1"/><path d="m7266.5 2457.9s-31.45-56.18-97.42-56.18c-65.98 0-83-57.9-95.78-27.88-12.76 30.01 19.16 76.39 55.34 84.06s88.42 85.76 137.86 81.84c49.42-3.94 0-81.84 0-81.84"/><path d="m7266.5 2571.2s-149.98 14.12-196.06 0-112.06-138.54-97.15-159.33c14.89-20.79 65.25-34.39 97.52-18.01 32.29 16.37 40.56 88.72 68.47 88.17s146.45 17.72 146.45 17.72l-19.23 71.45"/><path d="m8090 2894.4c-38.02-32.11-262.24-272.01-330.88-323.18-68.66-51.17-492.62 0-492.62 0v-113.3s339.9-84.06 449.55-84.06 310.66 142.54 310.66 142.54l63.29 378"/><path d="m9234.9 797.19s145.27 82.5 181.9-40.691c36.62-123.2 19.97-216.52 49.94-313.02 29.96-96.511 20.66-225.72-63.26-129.81-46.61 53.269-155.09 304.88-237.36 370.52l68.78 113"/><path d="m8414.5 1372s0-304.58 206.33-447.04c206.32-142.47 545.29-240.72 545.29-240.72l68.78 113s-353.71 275.1-432.31 343.88c-78.6 68.77-83.51 353.71-83.51 353.71l-304.58-122.83"/><path d="m8031.3 1465.3s-245.63-368.43-338.97-982.52l142.47-39.29s142.46 235.8 176.86 417.57c34.38 181.76 373.35 505.99 373.35 505.99l-353.71 98.25"/><path d="m7834.8 443.48s64.68-173.09-75.62-186.41c-140.31-13.32-400-29.961-463.27 0-63.26 29.969 276.35 119.86 319.63 149.84 43.28 29.961 76.79 75.86 76.79 75.86l142.47-39.29"/></g><g><path d="m7882.4 3451.3s-36.78-299.45-55.17-556.87c0 0 141.85 78.8 328.35 78.8l-47.29 546.37-225.89-68.3" fill="#282b6c"/><path d="m8158.6 3612.6c-247.87-20.1-226.48-270.89-217.6-430.76 8.89-159.87 146.54-195.39 297.54-102.14 150.99 93.26 182.07 208.72 173.18 306.41-8.87 97.7-88.8 239.81-253.12 226.49" fill="#f797cb"/><path d="m8174.7 2926.9s-115.04-15.75-133.32-88.85c-18.27-73.1-140.06-328.94-49.92-464.17 90.13-135.24 137.65-153.51 137.65-233.92s-339.91-325.2-369.15-632.29c-14.62-153.51 175.44-116.97 303.36-142.55 127.92-25.59 197.36-182.75 467.83-98.68 270.46 84.06 592.09 113.3 654.23 274.12 62.13 160.82-131.59 252.19-259.51 350.87s-369.14 270.47-369.14 372.8 151.27 594.57-25.58 630.19c-176.87 35.61-356.45 32.48-356.45 32.48" fill="#6084cb"/><path d="m8115.5 3062.8s46.15-89.36 40.1-142.55c-6.05-53.2-46.47-27.67-59.25-63.84-12.76-36.17-21.28-197.89 131.93-178.74 153.2 19.16 208.06 117.06 206.39 180.87-2.1 80.46-85.11 48.93-100 91.49-14.9 42.56-31.92 227.68-31.92 227.68l-187.25-114.91" fill="#f797cb"/><path d="m8556.7 2841.7c180.19-122.07-179.31-504.38-294.33-584.78-115.02-80.41-503.23 40.19-503.23 40.19s-10.18 73.11 44.64 98.68c0 0 307.02 7.32 391.09 32.9 84.06 25.59 248.52 489.76 361.83 413.01" fill="#f797cb"/><path d="m8711.6 1102.4-2533.8 655.97c-25.63 6.63-41.02 32.78-34.39 58.4l209.02 807.35c6.63 25.62 32.78 41.01 58.4 34.38l2533.8-655.97c25.62-6.63 41.01-32.78 34.38-58.4l-209.01-807.35c-6.63-25.62-32.78-41.02-58.4-34.38" fill="#fff"/><path d="m7003.8 1664-677.43 175.39c-16.89 4.37-27.05 21.62-22.67 38.51l159.21 614.96c4.37 16.91 21.62 27.05 38.51 22.68l677.43-175.37c16.9-4.38 27.05-21.62 22.68-38.53l-159.21-614.96c-4.37-16.89-21.62-27.05-38.52-22.68" fill="#f35da6"/></g><g fill="#d1c9e9"><path d="m8507.5 1810.6c-3.99 0-8.04 0.49-12.08 1.54l-1149.2 297.52c-25.71 6.65-41.14 32.88-34.5 58.56 6.67 25.7 32.9 41.14 58.58 34.5l1149.2-297.52c25.7-6.66 41.13-32.89 34.49-58.58-5.62-21.65-25.13-36.02-46.5-36.02"/><path d="m7845.5 1757c-3.98 0-8.04 0.5-12.08 1.55l-541.75 140.24c-25.71 6.66-41.14 32.88-34.5 58.57 6.66 25.7 32.89 41.11 58.58 34.49l541.76-140.25c25.7-6.66 41.13-32.88 34.49-58.57-5.62-21.66-25.12-36.03-46.5-36.03"/><path d="m7799 1577.6c-3.99 0-8.04 0.5-12.08 1.54l-541.77 140.26c-25.7 6.66-41.13 32.88-34.49 58.57 6.67 25.7 32.91 41.12 58.57 34.48l541.78-140.25c25.69-6.66 41.12-32.88 34.48-58.58-5.61-21.65-25.12-36.02-46.49-36.02"/></g><g><path d="m7803.8 2395.8s-187.76 48.09-255.87-21.92c-68.1-70.01-82.99-110.45-36.18-133.86 46.83-23.41 96.81-42.76 132.47-10.74 35.67 32.02 84.35 76.77 114.94 67.84 30.57-8.92 44.64 98.68 44.64 98.68" fill="#f797cb"/><path d="m7791.6 2338.9s19.17-42.71-58.56-101c-34.05-25.54-69.86 0.97-13.65 50.5s72.21 50.5 72.21 50.5" fill="#f797cb"/><path d="m8197.6 3406.6s-288.93-39.39-370.37 21.02c0 0 55.17 344.11 383.51 344.11 165.48 0 262.67-133.97 312.58-246.91 49.92-112.96 78.8-496.01 78.8-496.01s-244.28-147.56-354.61-147.56c0 0 39.41 373.01-49.91 525.35" fill="#282b6c"/><path d="m7456.4 348.58c23.97-85.293 313.73 15.34 386.06 68.707 0 0 34.2-69.137 0-165.01-34.19-95.871-574.79-61.281-577.44-12-2.67 49.278 191.38 108.3 191.38 108.3" fill="#f03c83"/><path d="m9234.9 797.19s136.91 103.65 189.3-25.781 96.19-488.44 58.11-499.23c-38.08-10.778-83.9 42.09-109.31 86.992 0 0 40.41 8.551 25 100.99-15.41 92.449-62.73 339.68-163.1 337.03" fill="#f03c83"/></g></g></g></svg>
